<?xml version="1.0" encoding="UTF-8" standalone="no"?>
<!DOCTYPE svg PUBLIC "-//W3C//DTD SVG 1.1//EN" "http://www.w3.org/Graphics/SVG/1.1/DTD/svg11.dtd">
<!-- Создано Microsoft Visio, экспорт SVG camera.svg camera -->
<svg xmlns="http://www.w3.org/2000/svg" xmlns:xlink="http://www.w3.org/1999/xlink" xmlns:ev="http://www.w3.org/2001/xml-events"
		xmlns:v="http://schemas.microsoft.com/visio/2003/SVGExtensions/" width="1.70833in" height="0.812501in"
		viewBox="0 0 123 58.5" xml:space="preserve" color-interpolation-filters="sRGB" class="st4">
	<v:documentProperties v:langID="1049" v:viewMarkup="false"/>

	<style type="text/css">
	<![CDATA[
		.st1 {fill:#e3b873;stroke:none;stroke-linecap:butt;stroke-width:0.75}
		.st2 {fill:none}
		.st3 {stroke:#e3b873;stroke-linecap:round;stroke-linejoin:round;stroke-width:0.75}
		.st4 {fill:none;fill-rule:evenodd;font-size:12px;overflow:visible;stroke-linecap:square;stroke-miterlimit:3}
	]]>
	</style>

	<g v:mID="0" v:index="1" v:groupContext="foregroundPage">
		<title>camera</title>
		<v:pageProperties v:drawingScale="1" v:pageScale="1" v:drawingUnits="19" v:shadowOffsetX="9" v:shadowOffsetY="-9"/>
		<g id="shape2-1" v:mID="2" v:groupContext="shape" transform="translate(18.75,-28.8277)">
			<title>Лист.2</title>
			<path d="M0 57.92 a0.578767 0.578766 -180 0 0 0.578754 0.578753 L23.42 58.5 a0.578767 0.578766 -180 0 0 0.578754 -0.578753
						 a0.578767 0.578766 -180 0 0 -0.578754 -0.578752 L0.58 57.34 a0.578767 0.578766 -180 0 0 -0.578754 0.578753
						 Z" class="st1"/>
		</g>
		<g id="shape3-3" v:mID="3" v:groupContext="shape" transform="translate(80.2496,-28.8277)">
			<title>Лист.3</title>
			<path d="M0 57.92 a0.578767 0.578766 -180 0 0 0.578754 0.578753 L23.42 58.5 a0.578767 0.578766 -180 0 0 0.578754 -0.578753
						 a0.578767 0.578766 -180 0 0 -0.578754 -0.578752 L0.58 57.34 a0.578767 0.578766 -180 0 0 -0.578754 0.578753
						 Z" class="st1"/>
		</g>
		<g id="shape4-5" v:mID="4" v:groupContext="shape" transform="translate(49.8548,-18.75)">
			<title>Лист.4</title>
			<path d="M24.28 44.23 L6.19 37.53 C5.96 37.44 5.7 37.56 5.62 37.79 C5.62 37.79 5.62 37.79 5.62 37.79 L3.62 43.24 C3.53
						 43.48 3.65 43.73 3.88 43.82 L3.88 43.82 L5.98 44.59 L5.52 45.85 C5.43 46.08 5.55 46.33 5.78 46.42 L9.98
						 47.96 L9.67 48.8 C9.39 49.55 9.65 50.4 10.3 50.86 L10.3 53.14 L4.29 53.14 C4 52.47 3.41 51.99 2.7 51.84
						 L2.7 50.9 C2.7 50.66 2.5 50.46 2.25 50.46 L0.45 50.46 C0.2 50.46 0 50.66 0 50.9 L0 58.05 C0 58.3 0.2 58.5
						 0.45 58.5 L2.25 58.5 C2.5 58.5 2.7 58.3 2.7 58.05 L2.7 57.12 C3.41 56.97 4 56.48 4.29 55.82 L10.3 55.82
						 L10.3 56.27 C10.3 57.01 10.9 57.61 11.65 57.61 C12.39 57.61 12.99 57.01 12.99 56.27 L12.99 51.32 C13.39
						 51.11 13.71 50.77 13.86 50.34 L14.17 49.5 L17.94 50.89 C17.99 50.9 18.05 50.91 18.1 50.91 C18.29 50.91 18.45
						 50.8 18.52 50.62 L18.69 50.16 C20.14 50.44 21.54 49.48 21.81 48.03 C21.91 47.49 21.85 46.93 21.63 46.44
						 L24.33 45.05 C24.55 44.93 24.64 44.66 24.53 44.44 C24.48 44.34 24.39 44.27 24.29 44.23 L24.28 44.23 ZM11.2
						 51.27 L11.57 51.4 C11.74 51.46 11.91 51.49 12.09 51.5 L12.09 53.14 L11.2 53.14 L11.2 51.27 ZM1.8 57.61 L0.89
						 57.61 L0.89 51.35 L1.8 51.35 L1.8 57.61 ZM3.59 54.93 C3.59 55.49 3.23 56 2.7 56.19 L2.7 52.77 C3.23 52.96
						 3.59 53.46 3.59 54.03 L3.59 54.93 ZM4.5 54.03 L12.09 54.03 L12.09 54.93 L4.5 54.93 L4.5 54.03 ZM11.65 56.71
						 C11.4 56.71 11.2 56.51 11.2 56.27 L11.2 55.82 L12.09 55.82 L12.09 56.27 C12.09 56.51 11.89 56.71 11.65 56.71
						 ZM13.33 49.19 L13.02 50.03 C12.85 50.5 12.34 50.73 11.88 50.56 L11.04 50.25 C10.57 50.08 10.34 49.57 10.51
						 49.11 C10.51 49.11 10.51 49.11 10.51 49.11 L10.81 48.27 L13.08 49.1 L13.33 49.19 ZM17.83 49.89 L6.51 45.74
						 L6.82 44.9 L13.53 47.36 C13.69 47.42 13.86 47.38 13.99 47.27 L15.24 46.09 L18.76 47.38 L17.83 49.89 ZM20.85
						 48.15 C20.57 48.91 19.81 49.39 19 49.31 L19.69 47.43 L20.82 46.85 C20.99 47.26 21.01 47.73 20.85 48.15 ZM19.35
						 46.6 C19.32 46.61 19.3 46.61 19.28 46.62 L15.29 45.15 C15.13 45.09 14.96 45.13 14.83 45.25 L13.58 46.43
						 L4.61 43.13 L6.3 38.52 L23.02 44.72 L19.35 46.6 Z" class="st1"/>
		</g>
		<g id="shape5-7" v:mID="5" v:groupContext="shape" transform="translate(58.2025,-31.5019)">
			<title>Лист.5</title>
			<path d="M0.39 56.19 L0 57.25 L0.39 56.19 ZM2.11 56.82 L1.72 57.88 L2.11 56.82 ZM3.78 57.44 L3.38 58.5 L3.78 57.44 Z"
					class="st2"/>
			<path d="M0.39 56.19 L0 57.25M2.11 56.82 L1.72 57.88M3.78 57.44 L3.38 58.5" class="st3"/>
		</g>
	</g>
</svg>
